<?xml version="1.0" standalone="no"?>
<!DOCTYPE svg PUBLIC "-//W3C//DTD SVG 20010904//EN"
 "http://www.w3.org/TR/2001/REC-SVG-20010904/DTD/svg10.dtd">
<svg version="1.0" xmlns="http://www.w3.org/2000/svg"
 width="391.000000pt" height="391.000000pt" viewBox="0 0 391.000000 391.000000"
 preserveAspectRatio="xMidYMid meet">
<metadata>
Created by potrace 1.14, written by Peter Selinger 2001-2017
</metadata>
<g transform="translate(0.000000,391.000000) scale(0.100000,-0.100000)"
fill="#000000" stroke="none">
<path d="M1615 3655 c-49 -7 -99 -15 -110 -18 -11 -3 -31 -8 -45 -11 -164 -31
-413 -127 -449 -172 -25 -32 -17 -57 32 -97 86 -69 109 -91 124 -120 31 -60
21 -96 -85 -317 -33 -69 -94 -213 -137 -320 -42 -107 -83 -209 -91 -227 -8
-17 -14 -34 -14 -38 0 -7 -116 -303 -145 -370 -7 -16 -52 -138 -100 -270 -48
-132 -93 -253 -100 -270 -8 -16 -37 -88 -66 -160 -61 -154 -215 -473 -289
-600 -70 -120 -100 -190 -107 -247 -5 -43 -3 -50 25 -77 32 -32 44 -35 145
-33 169 4 403 118 543 264 118 122 179 236 283 528 35 96 73 202 86 235 25 64
88 257 205 625 39 124 81 257 94 295 13 39 34 104 46 145 l24 75 13 -50 c163
-607 385 -1156 691 -1714 54 -100 139 -219 196 -277 162 -161 297 -139 431 71
85 133 235 484 395 925 64 177 96 261 119 320 11 25 62 167 116 315 53 149
101 279 105 290 13 29 93 260 160 465 117 352 162 531 162 645 0 148 -36 184
-172 171 -163 -15 -344 -113 -443 -241 -57 -74 -132 -237 -192 -419 -58 -175
-68 -212 -181 -636 -79 -301 -152 -550 -163 -562 -11 -12 -95 141 -153 277
-52 124 -149 394 -188 528 -10 34 -47 163 -83 287 -111 382 -197 595 -275 682
-82 91 -222 126 -407 103z"/>
</g>
</svg>
