<svg xmlns="http://www.w3.org/2000/svg" width="40.571" height="59.953" viewBox="0 0 40.571 59.953">
  <g id="Group_119" data-name="Group 119" transform="translate(-43.773)">
    <path id="Icon_simple-email" data-name="Icon simple-email" d="M40.543,20.649a23.074,23.074,0,0,1-.744,5,14.482,14.482,0,0,1-1.946,4.395,10.268,10.268,0,0,1-3.3,3.123,9.31,9.31,0,0,1-4.817,1.188,6.983,6.983,0,0,1-3.483-.853A5.965,5.965,0,0,1,23.9,31.094a7.461,7.461,0,0,1-6.313,3.17,6.419,6.419,0,0,1-5.51-2.963,9.7,9.7,0,0,1-1.37-3.433,14.806,14.806,0,0,1-.179-4.479A20.8,20.8,0,0,1,11.893,17.9a14.909,14.909,0,0,1,2.522-4.2,10.668,10.668,0,0,1,3.467-2.678,9.673,9.673,0,0,1,4.216-.937,13.109,13.109,0,0,1,2.522.215,10.322,10.322,0,0,1,1.957.587,10.583,10.583,0,0,1,1.622.855c.495.319.992.649,1.487.984L28.46,26.819a4.683,4.683,0,0,0,.036,1.649,2.308,2.308,0,0,0,.5,1.018,1.812,1.812,0,0,0,.816.531,3.031,3.031,0,0,0,2.868-.565A6.113,6.113,0,0,0,34.222,27.5a12.6,12.6,0,0,0,1.034-2.941,20.179,20.179,0,0,0,.453-3.662,23.406,23.406,0,0,0-.576-6.844,13.6,13.6,0,0,0-2.533-5.3,11.762,11.762,0,0,0-4.54-3.411,16.479,16.479,0,0,0-6.615-1.211A14.605,14.605,0,0,0,14.9,5.558,15.01,15.01,0,0,0,9.933,9.511a18.972,18.972,0,0,0-3.254,5.947,26.8,26.8,0,0,0-1.37,7.409,24.636,24.636,0,0,0,.7,7.56A13.653,13.653,0,0,0,8.77,35.844,11.527,11.527,0,0,0,13.45,39.1a17.952,17.952,0,0,0,6.458,1.079,22.119,22.119,0,0,0,4.238-.456c.7-.14,1.362-.308,1.993-.492a15,15,0,0,0,1.717-.615l.886,3.987a9.838,9.838,0,0,1-1.921.951,18.488,18.488,0,0,1-2.27.657,22.151,22.151,0,0,1-4.742.531,24.865,24.865,0,0,1-8.644-1.392,15.91,15.91,0,0,1-6.3-4.143,17.4,17.4,0,0,1-3.783-6.841,29.181,29.181,0,0,1-1.057-9.5,28.964,28.964,0,0,1,1.817-9.114A22.556,22.556,0,0,1,6.22,6.511,19.95,19.95,0,0,1,12.9,1.733,20.911,20.911,0,0,1,21.549,0a21.831,21.831,0,0,1,8.382,1.5,16.3,16.3,0,0,1,6.05,4.222,17.325,17.325,0,0,1,3.59,6.522A24.94,24.94,0,0,1,40.543,20.649Zm-24.01,2.74a9.511,9.511,0,0,0,.492,4.716A2.529,2.529,0,0,0,19.458,29.7a2.687,2.687,0,0,0,.833-.154,2.971,2.971,0,0,0,.959-.576,5.118,5.118,0,0,0,.973-1.174,9.011,9.011,0,0,0,.895-1.985l.956-10.948a5.712,5.712,0,0,0-1.487-.2,5.143,5.143,0,0,0-2.474.568A4.9,4.9,0,0,0,18.359,16.9,9.785,9.785,0,0,0,17.2,19.64a23.242,23.242,0,0,0-.66,3.746Z" transform="translate(43.773 15.213)" fill="#707070"/>
    <path id="Path_25" data-name="Path 25" d="M0,0" transform="translate(64.059)" fill="none" stroke="#707070" stroke-width="1"/>
  </g>
</svg>