<svg xmlns="http://www.w3.org/2000/svg" width="41.439" height="41.441" viewBox="0 0 41.439 41.441">
  <path id="Icon_ionic-ios-person" data-name="Icon ionic-ios-person" d="M41.418,40.394c-.777-3.432-5.212-5.1-6.745-5.644a50.289,50.289,0,0,0-5.623-1.079,5.713,5.713,0,0,1-2.6-1.2c-.432-.518-.173-5.32-.173-5.32a16.007,16.007,0,0,0,1.23-2.342,30.206,30.206,0,0,0,.907-4.09s.885,0,1.2-1.554c.335-1.694.863-2.353.8-3.615-.065-1.241-.745-1.209-.745-1.209A18.921,18.921,0,0,0,30.4,8.806C30.5,4.371,27.022,0,20.73,0c-6.378,0-9.777,4.371-9.68,8.806a19.736,19.736,0,0,0,.723,5.536s-.68-.032-.745,1.209c-.065,1.263.464,1.921.8,3.615.3,1.554,1.2,1.554,1.2,1.554a30.206,30.206,0,0,0,.907,4.09,16.007,16.007,0,0,0,1.23,2.342s.259,4.8-.173,5.32a5.713,5.713,0,0,1-2.6,1.2A50.289,50.289,0,0,0,6.765,34.75C5.233,35.289.8,36.962.021,40.394a.863.863,0,0,0,.853,1.047h39.7A.861.861,0,0,0,41.418,40.394Z" fill="#707070"/>
</svg>