<svg xmlns="http://www.w3.org/2000/svg" width="30.81" height="44.42" viewBox="0 0 30.81 44.42">
  <g id="Group_133" data-name="Group 133" transform="translate(-227.679 -137.619)">
    <g id="icon-157358" transform="translate(227.679 137.528)">
      <path id="Path_27" data-name="Path 27" d="M9.006.091S-.117.219,0,9.009c.11,8.2,1.562,15.518,4.12,20.252.023.048.2.354.383.644,2.725,4.332,9.714,15.672,17.653,14.525A22.982,22.982,0,0,0,29.029,41.5l-9.6-8.027s-2.843,1.911-4.621-.637-7.346-14.4-7.346-14.4-1.54-3.823,1.9-5.479L9.006.091Z" fill="#707070"/>
      <path id="Path_28" data-name="Path 28" d="M24.1.04a3.312,3.312,0,0,1,2.27.5c1.468.75,1.469,1.376,1.469,1.376l.134,8.635a10.731,10.731,0,0,1-.935,1c-.534.5-2.27,1.252-2.538.751S24.1.04,24.1.04Z" transform="translate(-14.257 0.091)" fill="#707070"/>
      <path id="Path_29" data-name="Path 29" d="M48.4,71.126l2.621-1.413a2.272,2.272,0,0,1,1.53.486c.942.609,5.885,4.619,5.885,4.619a1.762,1.762,0,0,1,.588,1.58c-.235.851-.824,2.674-.824,2.674Z" transform="translate(-28.257 -38.43)" fill="#707070"/>
    </g>
  </g>
</svg>